<svg width="35" height="35" viewBox="0 0 35 35" fill="none" xmlns="http://www.w3.org/2000/svg">
<g clip-path="url(#clip0_6383_6621)">
<path d="M13.3496 17.5024C13.3496 19.7793 15.1943 21.624 17.4712 21.624C19.7481 21.624 21.5928 19.7793 21.5928 17.5024C21.5928 15.2255 19.7481 13.3809 17.4712 13.3809C15.1943 13.3809 13.3496 15.2255 13.3496 17.5024Z" fill="black"/>
<path d="M16.2456 24.1777L15.5684 35.0008L19.4315 34.9963L18.7587 24.1866L16.2456 24.1777Z" fill="black"/>
<path d="M7.07617 31.6886L10.4269 33.618L15.248 23.9178L13.0736 22.6523L7.07617 31.6886Z" fill="black"/>
<path d="M11.0905 19.752L1.37695 24.5775L3.31521 27.9194L12.3426 21.9308L11.0905 19.752Z" fill="black"/>
<path d="M10.823 16.2456L0 15.5684L0.00445576 19.436L10.8186 18.7587L10.823 16.2456Z" fill="black"/>
<path d="M12.3469 13.0736L3.31063 7.07617L1.38574 10.4269L11.0859 15.248L12.3469 13.0736Z" fill="black"/>
<path d="M15.2519 11.0905L10.4264 1.37695L7.08008 3.31521L13.0686 12.3426L15.2519 11.0905Z" fill="black"/>
<path d="M18.7587 10.823L19.4315 0L15.5684 0.00445576L16.2456 10.8186L18.7587 10.823Z" fill="black"/>
<path d="M27.9238 3.30965L24.5731 1.38477L19.752 11.085L21.9264 12.3459L27.9238 3.30965Z" fill="black"/>
<path d="M23.9097 15.2519L33.6233 10.4264L31.685 7.08008L22.6621 13.0686L23.9097 15.2519Z" fill="black"/>
<path d="M24.1768 18.7587L34.9998 19.4315L34.9953 15.5684L24.1857 16.2456L24.1768 18.7587Z" fill="black"/>
<path d="M22.6533 21.9264L31.6896 27.9238L33.6189 24.5731L23.9188 19.752L22.6533 21.9264Z" fill="black"/>
<path d="M19.752 23.9097L24.5775 33.6233L27.9194 31.685L21.9308 22.6621L19.752 23.9097Z" fill="black"/>
<path d="M33.8427 3.496C33.4747 3.864 33.0267 4.048 32.4987 4.048C31.9707 4.048 31.5201 3.864 31.1467 3.496C30.7787 3.128 30.5947 2.66667 30.5947 2.112C30.5947 1.56267 30.7787 1.104 31.1467 0.736C31.5201 0.362666 31.9707 0.176 32.4987 0.176C33.0267 0.176 33.4747 0.362666 33.8427 0.736C34.2161 1.104 34.4027 1.56267 34.4027 2.112C34.4027 2.66667 34.2161 3.128 33.8427 3.496ZM31.3627 3.304C31.6614 3.61333 32.0401 3.768 32.4987 3.768C32.9574 3.768 33.3334 3.61333 33.6267 3.304C33.9254 2.98933 34.0747 2.592 34.0747 2.112C34.0747 1.63733 33.9254 1.24267 33.6267 0.928C33.3281 0.613333 32.9521 0.456 32.4987 0.456C32.0454 0.456 31.6694 0.613333 31.3707 0.928C31.0721 1.24267 30.9227 1.63733 30.9227 2.112C30.9227 2.592 31.0694 2.98933 31.3627 3.304ZM31.7547 3.112V1.064H32.6987C32.8854 1.064 33.0401 1.12 33.1627 1.232C33.2854 1.33867 33.3467 1.47467 33.3467 1.64C33.3467 1.90133 33.2187 2.064 32.9627 2.128V2.136C33.1547 2.18933 33.2614 2.328 33.2827 2.552C33.2881 2.6 33.2934 2.65333 33.2987 2.712C33.3041 2.77067 33.3067 2.81867 33.3067 2.856C33.3121 2.89333 33.3147 2.93067 33.3147 2.968C33.3201 3.00533 33.3254 3.03467 33.3307 3.056C33.3414 3.072 33.3547 3.08267 33.3707 3.088V3.112H32.9787C32.9307 3.09067 32.9014 2.93333 32.8907 2.64C32.8801 2.40533 32.7494 2.288 32.4987 2.288H32.1627V3.112H31.7547ZM32.1627 1.4V1.976H32.6107C32.8347 1.976 32.9467 1.88 32.9467 1.688C32.9467 1.496 32.8347 1.4 32.6107 1.4H32.1627Z" fill="black"/>
</g>
<defs>
<clipPath id="clip0_6383_6621">
<rect width="35" height="35" fill="white"/>
</clipPath>
</defs>
</svg>
