<svg width="215" height="35" viewBox="0 0 215 35" fill="none" xmlns="http://www.w3.org/2000/svg">
<g clip-path="url(#clip0_6305_5968)">
<path d="M49.4692 15.4837H44.6301V9H40V26.6674H44.6301V19.6879H49.4692V26.6674H54.0946V9H49.4692V15.4837Z" fill="black"/>
<path d="M55.8328 26.6674H68.3983V22.6041H60.4582V19.6442H67.4342V15.576H60.4582V13.0632H68.3983V9H55.8328V26.6674Z" fill="black"/>
<path d="M79.7574 18.2104L75.0655 9.16039L74.9801 9H70.0317V26.6674H74.4672V17.1702L79.0498 26.5021L79.1353 26.6674H83.8937V9H79.7574V18.2104Z" fill="black"/>
<path d="M98.7198 14.6963C98.7198 10.9684 96.3596 9 91.8957 9H85.4705V26.6722H90.0959V20.7037H91.5395L94.593 26.6722H99.7883L95.9844 19.7657C97.7415 18.7742 98.7198 17.0293 98.7198 14.7012V14.6963ZM91.587 16.8203H90.0959V12.8737H91.587C93.7382 12.8737 94.1799 13.6027 94.1799 14.6963C94.1799 16.1058 93.3061 16.8203 91.587 16.8203Z" fill="black"/>
<path d="M105.268 9H100.643V26.6722H105.268V9Z" fill="black"/>
<path d="M122.849 17.2286C124.04 16.4461 124.658 14.8664 124.658 13.5444C124.658 10.531 122.464 9 118.147 9H112.026V26.6722H118.641C122.91 26.6722 125.465 24.6795 125.465 21.3356C125.465 19.3768 124.52 17.909 122.853 17.2286H122.849ZM116.651 12.7813H118.019C119.767 12.7813 120.127 13.3306 120.127 14.1568C120.127 15.2212 119.415 15.7607 118.005 15.7607H116.651V12.7813ZM118.332 22.886H116.651V19.406H118.332C120.612 19.406 120.925 20.1982 120.925 21.0537C120.925 21.8362 120.659 22.8811 118.332 22.8811V22.886Z" fill="black"/>
<path d="M136.098 9H130.817L125.579 26.2737L125.46 26.6674H130.219L131.169 22.7839H135.614L136.559 26.6674H141.455L136.164 9.21385L136.098 9ZM132.095 18.9783L132.346 17.943C132.702 16.587 133.059 15.0025 133.382 13.5153C133.477 13.9235 133.572 14.3367 133.666 14.7547C133.918 15.8385 134.175 16.9612 134.431 17.9382L134.683 18.9783H132.095Z" fill="black"/>
<path d="M155.568 14.6963C155.568 10.9684 153.208 9 148.744 9H142.319V26.6722H146.944V20.7037H148.388L151.442 26.6722H156.637L152.838 19.7657C154.595 18.7742 155.573 17.0293 155.573 14.7012L155.568 14.6963ZM148.436 16.8203H146.944V12.8737H148.436C150.587 12.8737 151.029 13.6027 151.029 14.6963C151.029 16.1058 150.155 16.8203 148.436 16.8203Z" fill="black"/>
<path d="M170.746 14.6963C170.746 10.9684 168.385 9 163.922 9H157.496V26.6722H162.122V20.7037H163.565L166.619 26.6722H171.814L168.015 19.7657C169.772 18.7742 170.75 17.0293 170.75 14.7012L170.746 14.6963ZM163.613 16.8203H162.122V12.8737H163.613C165.764 12.8737 166.206 13.6027 166.206 14.6963C166.206 16.1058 165.332 16.8203 163.613 16.8203Z" fill="black"/>
<path d="M172.669 9V26.6674H183.843H185.234V22.6041H183.843H177.294V19.6442H182.879H184.27V15.576H182.879H177.294V13.0632H183.843H185.234V9H183.843H172.669Z" fill="black"/>
<path d="M186.764 13.0632H191.28V26.6674H195.91V13.0632H200.426V9H186.764V13.0632Z" fill="black"/>
<path d="M201.78 9V13.0632H206.296V26.6674H210.921V13.0632H215.437V9H201.78Z" fill="black"/>
<path d="M13.3508 17.5C13.3508 19.7735 15.1971 21.6197 17.4705 21.6197C19.7439 21.6197 21.5902 19.7735 21.5902 17.5C21.5902 15.2266 19.7439 13.3804 17.4705 13.3804C15.1971 13.3804 13.3508 15.2266 13.3508 17.5Z" fill="black"/>
<path d="M16.2428 24.178L15.5701 35.0001L19.4344 34.9952L18.7568 24.1829L16.2428 24.178Z" fill="black"/>
<path d="M7.07544 31.6904L10.4291 33.6201L15.246 23.9176L13.0757 22.6556L7.07544 31.6904Z" fill="black"/>
<path d="M11.0923 19.7489L1.37988 24.5756L3.31451 27.9244L12.3395 21.929L11.0923 19.7489Z" fill="black"/>
<path d="M10.8221 16.2429L0 15.5702L0.00491021 19.4345L10.8172 18.7569L10.8221 16.2429Z" fill="black"/>
<path d="M12.349 13.0757L3.30932 7.07544L1.38452 10.4291L11.0822 15.246L12.349 13.0757Z" fill="black"/>
<path d="M15.2512 11.092L10.4244 1.37964L7.08057 3.31426L13.071 12.3392L15.2512 11.092Z" fill="black"/>
<path d="M18.7568 10.8221L19.4344 0L15.5701 0.00491021L16.2428 10.8172L18.7568 10.8221Z" fill="black"/>
<path d="M27.9245 3.30957L24.5757 1.38477L19.7539 11.0824L21.9291 12.3493L27.9245 3.30957Z" fill="black"/>
<path d="M23.9127 15.2509L33.6252 10.4242L31.6856 7.08032L22.6606 13.0708L23.9127 15.2509Z" fill="black"/>
<path d="M24.1777 18.7569L34.9998 19.4345L34.9949 15.5702L24.1826 16.2429L24.1777 18.7569Z" fill="black"/>
<path d="M22.6558 21.929L31.6906 27.9244L33.6203 24.5756L23.9177 19.7538L22.6558 21.929Z" fill="black"/>
<path d="M19.7539 23.9127L24.5757 33.6252L27.9245 31.6856L21.934 22.6606L19.7539 23.9127Z" fill="black"/>
</g>
<defs>
<clipPath id="clip0_6305_5968">
<rect width="215" height="34.6446" fill="white"/>
</clipPath>
</defs>
</svg>
