<svg width="383" height="286" viewBox="0 0 383 286" fill="none" xmlns="http://www.w3.org/2000/svg">
<g clip-path="url(#clip0_7009_3099)">
<path d="M217.655 157.483C214.363 150.109 196.206 149.236 196.028 149.236C194.91 149.219 177.039 144.901 165.221 141.985C164.735 141.651 163.684 141.445 161.454 141.033C156.384 140.093 146.948 138.351 141.906 132.848C139.279 129.976 141.615 120.205 142.755 116.615C142.979 116.176 143.18 115.792 143.359 115.447C144.885 112.52 145.042 112.214 146.993 105.553C149.34 97.5338 150.039 75.759 144.08 65.6645C141.229 60.8343 137.63 58.4137 134.46 59.1983C131.665 59.8883 129.815 62.8933 129.625 67.0334C129.401 72.0473 128.076 76.7439 127.009 79.7934C126.327 81.7355 125.762 83.8223 125.32 85.9925C123.917 92.8928 119.451 109.765 108.31 117.628C107.097 118.057 94.5647 122.725 90.8194 133.109C89.489 136.793 88.8461 140.076 88.2816 142.964C87.5828 146.548 86.9679 149.653 85.3301 152.714C85.6487 152.936 85.917 153.226 86.1294 153.554C87.9965 150.21 88.6617 146.86 89.3772 143.176C89.9641 140.182 90.5679 137.088 91.8703 133.482C95.5429 123.31 108.623 118.697 108.752 118.652C108.802 118.635 108.847 118.613 108.892 118.58C120.407 110.505 124.985 93.2489 126.416 86.2095C126.847 84.0894 127.406 82.0527 128.065 80.1551C129.161 77.0333 130.508 72.2253 130.743 67.078C130.905 63.4497 132.431 60.8399 134.728 60.2723C137.395 59.6156 140.531 61.836 143.119 66.221C148.709 75.6922 148.278 97.1888 145.919 105.23C143.996 111.785 143.846 112.08 142.364 114.924C142.18 115.285 141.967 115.68 141.733 116.137C141.721 116.165 141.705 116.192 141.699 116.22C141.526 116.766 137.462 129.637 141.073 133.582C146.367 139.364 156.043 141.15 161.241 142.113C162.745 142.391 164.305 142.681 164.567 142.875C164.64 142.948 164.73 142.998 164.83 143.02C167.865 143.766 194.507 150.332 196.022 150.332C198.28 150.332 213.876 151.746 216.626 157.917C218.013 161.022 218.18 163.398 217.118 164.978C215.889 166.809 212.965 167.672 208.426 167.555C202.87 167.41 183.948 164.211 166.166 161.105C164.981 160.9 163.818 160.694 162.672 160.488C152.75 158.729 144.187 157.205 136.713 157.878C136.405 157.906 136.176 158.178 136.204 158.484C136.232 158.79 136.5 159.019 136.813 158.991C144.136 158.334 152.633 159.842 162.477 161.59C163.628 161.795 164.791 162.001 165.976 162.207C184.691 165.479 202.78 168.523 208.398 168.673C213.356 168.807 216.593 167.772 218.046 165.602C219.332 163.687 219.198 160.95 217.644 157.472L217.655 157.483Z" fill="black"/>
<path d="M132.565 183.176C132.353 183.176 132.157 183.048 132.062 182.842C131.939 182.564 132.079 182.224 132.364 182.102C132.526 182.029 134.449 181.39 151.465 181.228C169.291 181.061 172.489 178.028 174.82 174.083C177.279 169.921 174.809 163.543 174.781 163.477C174.669 163.193 174.809 162.87 175.094 162.753C175.379 162.642 175.703 162.781 175.82 163.065C175.932 163.349 178.52 170.01 175.781 174.639C172.841 179.62 168.274 182.174 151.476 182.336C134.936 182.491 132.862 183.098 132.783 183.126C132.711 183.159 132.638 183.17 132.565 183.17V183.176Z" fill="black"/>
<path d="M340.997 228.878C337.185 228.878 333.719 228.555 330.935 228.171C297.642 223.575 266.293 184.827 265.98 184.438C265.79 184.199 265.829 183.848 266.07 183.653C266.31 183.464 266.662 183.503 266.858 183.742C267.165 184.132 298.245 222.534 331.092 227.069C340.74 228.399 358.689 228.956 370.49 217.732C379.506 209.151 383.201 195.411 381.474 176.892C377.293 132.057 346.956 96.8543 335.62 87.0715C334.558 86.1533 333.428 85.1684 332.238 84.1389C322.276 75.4801 308.643 63.6272 300.001 60.1381C295.993 58.5188 292.722 57.4225 289.564 56.3541C285.087 54.8461 281.218 53.5439 276.601 51.2012C274.074 49.9157 271.537 47.9514 268.853 45.8757C263.23 41.5241 256.863 36.5881 248.702 36.5881C233.396 36.5881 232.038 43.3104 232.027 43.3771C231.999 43.5441 231.893 43.6888 231.742 43.7722C231.591 43.8557 231.412 43.8613 231.256 43.8001C231.205 43.7778 225.872 41.6576 216.968 45.77C208.203 49.8211 210.299 59.8043 210.321 59.9044C210.355 60.0658 210.321 60.2327 210.215 60.3663C210.114 60.4943 209.958 60.5778 209.79 60.5833C200.925 60.8838 178.447 56.9885 163.578 54.4065C157.994 53.4382 153.589 52.6703 151.23 52.3586C145.741 51.6241 141.587 52.5256 140.123 54.7682C139.027 56.4432 139.452 58.9529 141.353 62.0135C146.624 70.5164 167.748 73.36 167.961 73.3878C168.005 73.3934 168.05 73.4045 168.095 73.4212C172.645 75.2297 197.297 79.2864 197.543 79.3254C197.727 79.3532 197.878 79.4701 197.956 79.6314C198.057 79.7483 198.621 80.2992 201.344 81.9352C204.837 84.0332 218.382 87.6502 218.516 87.6836C218.762 87.7504 218.935 87.973 218.93 88.2234C218.93 88.574 219.405 89.1305 220.009 89.8372C221.831 91.9629 225.218 95.9194 225.403 105.524C225.559 113.643 222.211 122.931 219.26 131.128C217.392 136.314 215.626 141.211 214.961 145.195C213.301 155.101 219.612 159.185 219.679 159.224C219.852 159.324 224.425 161.895 227.063 158.684C228.304 157.176 229.288 154.822 230.428 152.09C231.971 148.406 233.888 143.821 237.309 139.091C239.042 136.692 240.294 134.11 241.502 131.617C244.42 125.585 247.433 119.353 257.433 115.324C263.381 112.925 266.746 112.547 268.971 112.296C271.967 111.957 273.085 111.829 276.579 107.26C276.623 107.199 276.685 107.149 276.752 107.11C277.266 106.821 280.184 105.858 287.082 115.179C293.276 123.548 304.668 141.528 308.861 154.154C312.986 166.575 324.009 192.802 326.922 195.395C327.151 195.601 327.173 195.951 326.966 196.179C326.76 196.408 326.407 196.43 326.178 196.224C322.796 193.213 311.639 166.052 307.798 154.505C303.645 142.001 292.337 124.155 286.182 115.841C280.475 108.134 277.864 108.012 277.361 108.078C273.666 112.886 272.224 113.048 269.099 113.404C266.807 113.665 263.666 114.016 257.858 116.359C248.26 120.226 245.471 125.997 242.519 132.101C241.289 134.639 240.021 137.265 238.232 139.747C234.889 144.372 232.994 148.89 231.474 152.524C230.3 155.334 229.282 157.76 227.941 159.396C224.693 163.347 219.164 160.214 219.114 160.187C218.812 159.997 212.093 155.651 213.876 145.023C214.558 140.938 216.342 135.997 218.225 130.76C221.143 122.658 224.453 113.471 224.302 105.552C224.128 96.3479 221.026 92.7308 219.176 90.5662C218.55 89.8316 218.058 89.264 217.89 88.6686C215.671 88.0676 204.128 84.9013 200.785 82.8924C198.454 81.4956 197.526 80.7945 197.157 80.3938C194.524 79.9598 172.394 76.2815 167.765 74.4896C166.177 74.2782 145.869 71.3956 140.419 62.6033C138.245 59.0975 137.837 56.2595 139.206 54.1672C140.911 51.5517 145.472 50.4611 151.398 51.2568C153.779 51.574 158.195 52.3419 163.791 53.3158C178.269 55.831 199.969 59.6039 209.136 59.4926C208.812 57.0608 208.314 48.5635 216.509 44.7739C224.274 41.1846 229.428 42.1084 231.11 42.5869C231.792 40.7394 234.939 35.4863 248.713 35.4863C257.26 35.4863 263.789 40.5447 269.552 45.0076C272.196 47.0554 274.689 48.9864 277.121 50.2218C281.66 52.5311 285.495 53.8222 289.933 55.3135C292.963 56.3319 296.389 57.4893 300.431 59.1198C309.246 62.6757 322.964 74.6065 332.987 83.3153C334.172 84.3448 335.301 85.3297 336.363 86.2424C347.794 96.1031 378.383 131.601 382.597 176.803C384.358 195.679 380.546 209.73 371.272 218.555C362.569 226.836 350.673 228.895 341.014 228.895L340.997 228.878Z" fill="black"/>
<path d="M266.584 266.596C266.282 266.596 266.036 266.363 266.025 266.062C266.002 265.406 263.738 200.231 266.852 171.105C269.06 150.477 265.728 126.376 265.695 126.137C265.65 125.831 265.863 125.552 266.17 125.508C266.477 125.463 266.757 125.675 266.802 125.981C266.835 126.226 270.184 150.455 267.964 171.222C264.856 200.27 267.12 265.372 267.143 266.023C267.154 266.329 266.914 266.585 266.606 266.596C266.6 266.596 266.595 266.596 266.584 266.596Z" fill="black"/>
<path d="M109.847 117.745C109.613 117.745 109.395 117.6 109.316 117.366C109.288 117.283 106.521 109.008 104.794 98.6964C104.492 96.8823 104.118 95.1461 103.721 93.3042C101.91 84.868 99.8526 75.3078 104.805 56.4211C110.943 33.0046 129.278 17.0783 143.119 10.5509C157.764 3.64505 171.449 -1.86961 190.633 0.606704C209.108 2.99398 227.756 12.0311 234.011 21.6303C239.942 30.7342 241.871 36.2378 241.949 36.4659C242.049 36.7553 241.893 37.0725 241.602 37.1726C241.312 37.2728 240.993 37.117 240.892 36.8276C240.876 36.772 238.919 31.2072 233.072 22.2369C226.979 12.8881 208.672 4.06241 190.488 1.70852C171.605 -0.728835 158.077 4.72461 143.594 11.5526C129.971 17.9743 111.921 33.6557 105.884 56.6993C101.004 75.3301 103.028 84.7568 104.811 93.0705C105.208 94.9235 105.588 96.6764 105.895 98.5128C107.606 108.735 110.345 116.932 110.373 117.016C110.474 117.305 110.311 117.622 110.021 117.722C109.959 117.745 109.903 117.75 109.842 117.75L109.847 117.745Z" fill="black"/>
<path d="M277.02 108.145C276.903 108.145 276.786 108.112 276.685 108.034C276.439 107.85 276.389 107.5 276.573 107.255C276.601 107.216 279.424 103.46 281.123 100.316C281.269 100.043 281.61 99.9429 281.878 100.088C282.152 100.232 282.253 100.572 282.107 100.839C280.369 104.055 277.585 107.761 277.468 107.917C277.356 108.062 277.188 108.14 277.02 108.14V108.145Z" fill="black"/>
<path d="M284.818 93.8838C289.151 88.6251 291.884 81.8639 292.001 75.036C292.085 73.105 291.89 71.0182 291.526 69.1206C291.465 68.8424 291.387 68.5196 291.912 68.1468C292.219 67.9075 292.616 67.8463 292.968 67.9409C293.583 68.119 293.55 68.4417 293.6 68.7367C295.054 76.199 293.248 84.1343 289.039 90.4447C288.005 91.9528 286.943 93.3718 285.612 94.6684C285.394 94.8854 285.036 94.8798 284.824 94.6628C284.612 94.4458 284.617 94.1063 284.818 93.8893V93.8838Z" fill="black"/>
<path d="M287.283 100.109C286.238 103.159 284.818 106.448 281.85 108.095C281.19 108.418 280.693 107.449 281.341 107.104C283.426 106.158 284.768 104.049 285.807 102.074C286.16 101.378 286.489 100.655 286.758 99.9314C286.881 99.603 287.389 99.77 287.283 100.109Z" fill="black"/>
<path d="M283.566 108.913C285.702 107.9 287.25 105.786 288.357 103.738C288.446 103.549 288.754 103.682 288.664 103.877C288.189 105.046 287.608 106.181 286.87 107.216C286.44 107.833 283.941 110.9 283.259 109.703C283.097 109.403 283.248 109.024 283.572 108.913H283.566Z" fill="black"/>
<path d="M286.126 111.156C286.663 111.017 287.205 110.494 287.619 110.043C289.1 108.302 290.028 106.131 290.872 104.022C290.956 103.794 291.319 103.922 291.241 104.15C290.782 105.653 290.268 107.139 289.581 108.558C288.82 109.965 287.887 111.863 286.171 112.269C285.438 112.286 285.388 111.201 286.12 111.156H286.126Z" fill="black"/>
<path d="M289.329 113.838C289.15 113.799 289.201 113.827 289.167 113.821C289.156 113.821 289.167 113.821 289.173 113.821C289.597 113.582 289.838 113.114 290.095 112.686C291.068 110.883 291.632 108.852 292.191 106.882C292.275 106.592 292.717 106.698 292.655 106.993C292.236 109.074 291.822 111.156 290.95 113.12C290.581 113.854 290 115.084 288.971 114.889C288.278 114.645 288.63 113.615 289.329 113.832V113.838Z" fill="black"/>
<path d="M291.236 116.933C291.074 116.894 291.04 116.916 291.023 116.933C291.113 116.894 291.197 116.81 291.286 116.705C292.365 115.241 292.812 113.383 293.349 111.657C293.382 111.529 293.516 111.457 293.645 111.491C293.762 111.524 293.835 111.646 293.818 111.763C293.433 113.655 293.153 115.647 292.113 117.334C291.828 117.717 291.454 118.124 290.884 117.985C290.19 117.74 290.543 116.71 291.241 116.933H291.236Z" fill="black"/>
<path d="M292.75 119.386C292.633 119.33 292.46 119.33 292.381 119.397C293.376 118.045 293.633 116.175 294.092 114.55C294.12 114.422 294.248 114.339 294.377 114.367C294.5 114.395 294.578 114.511 294.561 114.628C294.265 116.453 294.209 118.435 293.231 120.065C293.041 120.327 292.65 120.555 292.297 120.399C291.632 120.093 292.068 119.097 292.745 119.381L292.75 119.386Z" fill="black"/>
<path d="M294.701 122.135C294.489 121.924 294.064 121.963 293.935 122.202C294.472 120.783 294.6 119.219 294.869 117.728C294.908 117.438 295.361 117.477 295.349 117.767C295.288 119.342 295.327 120.933 294.992 122.486C294.908 122.953 294.382 123.332 293.946 122.959C293.41 122.469 294.153 121.651 294.701 122.135Z" fill="black"/>
<path d="M270.62 109.665C273.208 108.368 275.355 106.17 276.925 103.75C277.613 103.344 276.093 105.614 275.975 105.803C274.684 107.723 273.113 109.415 271.123 110.656C270.86 110.817 270.514 110.728 270.352 110.466C270.173 110.177 270.301 109.787 270.62 109.659V109.665Z" fill="black"/>
<path d="M274.387 104.194C272.71 106.698 270.787 109.052 268.149 110.655C267.88 110.811 267.539 110.722 267.383 110.46C267.226 110.193 267.316 109.854 267.579 109.698C270.15 108.429 272.285 106.22 274.057 103.972C274.197 103.766 274.527 103.983 274.387 104.194Z" fill="black"/>
<path d="M271.117 102.641C269.642 105.117 268.037 107.516 266.098 109.664C265.438 110.376 264.739 111.072 263.923 111.672C263.677 111.856 263.325 111.8 263.141 111.556C262.951 111.3 263.018 110.932 263.286 110.76C264.801 109.736 266.086 108.323 267.272 106.909C268.473 105.462 269.591 103.926 270.626 102.352C270.821 102.04 271.307 102.324 271.117 102.646V102.641Z" fill="black"/>
<path d="M266.969 103.527C264.945 106.755 262.888 109.921 260.2 112.676C259.685 113.188 258.892 112.409 259.406 111.891C260.764 110.656 261.983 109.215 263.146 107.74C264.297 106.271 265.404 104.752 266.449 103.205C266.662 102.876 267.176 103.193 266.969 103.527Z" fill="black"/>
<path d="M262.291 103.871C261.352 106.425 260.2 108.89 258.853 111.255C258.406 112.045 257.914 112.813 257.411 113.581C257.243 113.837 256.896 113.909 256.634 113.743C256.36 113.564 256.298 113.186 256.499 112.93C258.668 110.103 260.468 106.987 261.927 103.737C262.017 103.509 262.38 103.643 262.291 103.876V103.871Z" fill="black"/>
<path d="M256.812 106.671C256.561 107.851 255.063 117.233 253.386 116.159C253.117 115.981 253.062 115.613 253.257 115.357C254.873 112.781 255.448 109.487 256.231 106.554C256.309 106.187 256.879 106.292 256.812 106.665V106.671Z" fill="black"/>
<path d="M253.353 109.442C253.045 112.396 252.883 115.507 251.24 118.1C250.804 118.685 249.904 118.028 250.34 117.438C252.034 115.19 252.464 112.124 252.984 109.397C253.012 109.169 253.375 109.208 253.353 109.436V109.442Z" fill="black"/>
<path d="M249.859 112.897C249.808 114.694 249.713 116.486 249.467 118.278C249.317 118.818 249.283 120.788 248.277 120.454C247.992 120.337 247.852 120.009 247.969 119.725C248.461 118.768 248.668 117.477 248.881 116.375C249.082 115.212 249.255 114.038 249.395 112.864C249.428 112.58 249.859 112.602 249.853 112.891L249.859 112.897Z" fill="black"/>
<path d="M236.203 87.3783C235.409 87.3783 234.587 87.2614 233.76 87.0166C228.477 85.4752 225.146 82.2476 222.474 79.66C221.445 78.6639 220.473 77.7235 219.545 77.039C216.118 74.5126 209.55 60.84 209.27 60.2613C209.136 59.9831 209.254 59.6492 209.533 59.5212C209.813 59.3876 210.148 59.5045 210.277 59.7827C210.344 59.9219 217.007 73.7836 220.21 76.1431C221.194 76.8721 222.194 77.8403 223.251 78.8587C225.839 81.3628 229.053 84.4846 234.073 85.9482C236.957 86.7884 239.685 85.9036 241.357 83.572C243.095 81.1458 243.168 77.9739 241.535 75.6757C238.12 70.8677 234.923 69.9662 234.895 69.9551C234.626 69.8828 234.453 69.6268 234.481 69.3541C234.487 69.304 235.051 64.0398 232.933 60.2891C232.782 60.022 232.877 59.6826 233.145 59.5323C233.413 59.3821 233.754 59.4767 233.905 59.7438C235.85 63.1884 235.727 67.6179 235.627 69.0313C236.7 69.4543 239.501 70.8788 242.447 75.0301C244.353 77.7123 244.28 81.4073 242.262 84.2175C240.786 86.2765 238.617 87.3783 236.203 87.3783Z" fill="black"/>
<path d="M255.969 75.7971C255.852 75.7971 255.734 75.7971 255.617 75.786C248.305 75.3408 241.737 71.8239 236.097 65.3298C229.679 57.9398 230.859 43.8332 230.909 43.2322C230.937 42.9262 231.217 42.7036 231.513 42.7258C231.82 42.7537 232.05 43.0208 232.022 43.3268C232.01 43.4659 230.837 57.567 236.941 64.5953C242.374 70.85 248.68 74.239 255.684 74.6674C257.741 74.7899 259.809 73.5378 261.223 71.3119C262.839 68.7688 263.096 65.7193 261.883 63.538C261.307 62.4974 260.301 61.6293 259.06 61.095C257.646 60.4829 256.757 60.1379 256.752 60.1323C256.584 60.0656 256.455 59.9209 256.411 59.7484C256.394 59.6872 254.857 53.527 253.185 50.8726C252.313 49.4814 252.09 48.2127 251.872 46.9884C251.637 45.6696 251.436 44.5288 250.457 43.3491C250.262 43.1154 250.295 42.7592 250.53 42.5644C250.765 42.3697 251.117 42.4031 251.318 42.6368C252.492 44.0391 252.738 45.4414 252.973 46.7937C253.18 47.9678 253.375 49.0752 254.135 50.2827C255.712 52.7869 257.098 57.9398 257.428 59.2086C257.797 59.3588 258.529 59.6538 259.507 60.0767C260.978 60.7111 262.168 61.7517 262.867 63.0038C264.27 65.5357 264.002 69.0304 262.174 71.9073C260.614 74.3614 258.322 75.7915 255.969 75.7915V75.7971Z" fill="black"/>
<path d="M253.666 51.1349C253.548 51.1349 253.425 51.096 253.325 51.0181C253.084 50.8289 253.04 50.4839 253.224 50.239C253.28 50.1611 254.426 48.5585 253.313 45.2697C253.213 44.9803 253.369 44.6632 253.666 44.563C253.956 44.4628 254.275 44.6242 254.376 44.9136C255.7 48.82 254.174 50.8345 254.113 50.9179C254.001 51.057 253.839 51.1349 253.671 51.1349H253.666Z" fill="black"/>
<path d="M198.179 123.91C186.586 126.38 185.004 135.651 185.004 135.651C185.004 135.651 194.87 138.912 202.489 136.163C210.108 133.414 213.255 126.052 213.255 126.052C213.255 126.052 209.779 121.433 198.185 123.91H198.179ZM202.322 134.388C198.928 135.868 194.619 134.878 194.786 131.494C194.954 128.117 197.011 126.275 198.431 126.052C198.431 126.052 202.987 124.9 204.558 127.454C206.128 130.009 205.715 132.908 202.322 134.388Z" fill="black"/>
<path d="M195.463 137.399C189.929 137.399 185.032 135.808 184.959 135.785L184.848 135.746L184.87 135.63C184.887 135.535 186.603 126.236 198.157 123.771C209.706 121.306 213.228 125.774 213.373 125.969L213.423 126.036L213.39 126.108C213.356 126.181 210.131 133.56 202.545 136.297C200.287 137.11 197.822 137.399 195.474 137.399H195.463ZM185.166 135.557C186.307 135.908 195.401 138.573 202.439 136.036C209.494 133.493 212.725 126.871 213.088 126.075C212.613 125.541 208.828 121.779 198.208 124.044C187.553 126.314 185.401 134.472 185.161 135.557H185.166ZM199.163 135.184C197.967 135.184 196.855 134.901 196.044 134.344C195.072 133.676 194.591 132.691 194.647 131.489C194.815 128.023 196.95 126.142 198.409 125.919C198.588 125.875 203.071 124.773 204.675 127.383C205.536 128.779 205.793 130.254 205.391 131.523C204.988 132.797 203.948 133.832 202.378 134.517C201.344 134.967 200.22 135.19 199.163 135.19V135.184ZM200.695 125.936C199.488 125.936 198.487 126.181 198.465 126.186C197.084 126.403 195.088 128.19 194.926 131.501C194.87 132.602 195.312 133.504 196.201 134.116C197.66 135.118 200.158 135.179 202.266 134.261C203.758 133.61 204.748 132.636 205.122 131.439C205.497 130.249 205.257 128.857 204.435 127.527C203.641 126.242 202.037 125.936 200.69 125.936H200.695Z" fill="black"/>
<path d="M182.567 96.2098C171.728 97.5175 165.199 107.367 163.36 110.556C163.035 111.112 163.242 111.819 163.812 112.119C166.663 113.627 175.467 117.384 187.995 114.434C198.638 111.669 201.511 103.372 202.154 100.784C202.271 100.311 202.076 99.8157 201.662 99.5542C199.672 98.2966 193.193 94.9299 182.572 96.2154L182.567 96.2098ZM193.378 106.048C192.466 109.237 190.957 112.114 185.004 113.271C179.051 114.429 174.333 108.986 176.233 103.466C176.233 103.466 177.703 98.931 185.004 98.8475C192.304 98.764 194.289 102.86 193.378 106.048Z" fill="black"/>
<path d="M178.726 115.675C171.275 115.675 166.048 113.455 163.745 112.236C163.438 112.075 163.214 111.796 163.114 111.462C163.019 111.129 163.058 110.778 163.237 110.477C164.998 107.434 171.605 97.3892 182.55 96.0648C193.048 94.7961 199.459 97.9958 201.735 99.4259C202.199 99.7208 202.422 100.272 202.288 100.806C201.656 103.327 198.766 111.769 188.028 114.556C184.641 115.352 181.527 115.669 178.726 115.669V115.675ZM187.273 96.0592C185.814 96.0592 184.249 96.1483 182.583 96.3486C171.767 97.6563 165.227 107.606 163.477 110.622C163.343 110.856 163.309 111.129 163.382 111.39C163.455 111.652 163.634 111.863 163.874 111.991C167.01 113.649 175.641 117.194 187.955 114.289C198.543 111.54 201.394 103.227 202.014 100.745C202.12 100.327 201.947 99.8934 201.584 99.6652C199.7 98.4743 194.92 96.0537 187.273 96.0537V96.0592ZM183.405 113.566C181.141 113.566 179.028 112.637 177.536 110.934C175.725 108.864 175.188 106.059 176.099 103.421C176.116 103.377 177.687 98.7915 184.998 98.7081C189.554 98.658 191.678 100.194 192.673 101.485C193.668 102.781 193.976 104.462 193.512 106.081C192.679 108.986 191.27 112.186 185.032 113.405C184.49 113.51 183.942 113.56 183.411 113.56L183.405 113.566ZM185.222 98.9863C185.149 98.9863 185.077 98.9863 185.004 98.9863C177.899 99.0642 176.384 103.46 176.367 103.505C175.49 106.048 176.01 108.758 177.748 110.75C179.52 112.776 182.226 113.672 184.976 113.132C191.063 111.947 192.399 108.964 193.243 106.009C193.685 104.468 193.394 102.882 192.45 101.657C191.511 100.433 189.493 98.9863 185.222 98.9863Z" fill="black"/>
<path d="M160.911 116.41C155.774 114.846 151.968 116.738 151.968 116.738C151.968 116.738 151.554 123.911 158.508 125.314C165.462 126.716 168.944 122.592 168.944 122.592C168.944 122.592 166.043 117.974 160.911 116.41ZM159.671 123.889C158.217 123.627 155.724 122.047 157.105 119.209C157.105 119.209 158.653 115.909 162.242 118.68C165.831 121.452 161.129 124.151 159.676 123.889H159.671Z" fill="black"/>
<path d="M161.297 125.742C160.43 125.742 159.491 125.653 158.485 125.453C151.492 124.045 151.827 116.805 151.833 116.733V116.655L151.911 116.621C151.95 116.605 155.83 114.718 160.961 116.282C166.087 117.846 169.044 122.475 169.072 122.525L169.128 122.609L169.061 122.687C169.033 122.72 166.412 125.742 161.308 125.742H161.297ZM152.107 116.827C152.09 117.623 152.185 123.894 158.541 125.174C164.807 126.437 168.251 123.126 168.771 122.576C168.34 121.936 165.506 117.951 160.872 116.538C156.244 115.124 152.66 116.577 152.107 116.827ZM159.888 124.05C159.799 124.05 159.72 124.045 159.648 124.028C158.703 123.855 157.434 123.171 156.87 122.069C156.422 121.201 156.462 120.216 156.981 119.153C157.004 119.103 157.613 117.834 158.96 117.512C159.966 117.267 161.101 117.629 162.331 118.575C163.913 119.799 163.846 120.945 163.51 121.696C162.89 123.076 160.961 124.05 159.894 124.05H159.888ZM159.581 117.712C159.391 117.712 159.201 117.734 159.022 117.779C157.809 118.068 157.233 119.259 157.227 119.27C156.747 120.255 156.713 121.151 157.116 121.941C157.635 122.96 158.815 123.594 159.693 123.75C160.503 123.894 162.605 123.004 163.242 121.579C163.667 120.633 163.287 119.671 162.146 118.792C161.219 118.074 160.358 117.712 159.575 117.712H159.581Z" fill="black"/>
<path d="M165.636 82.5251C158.262 82.9369 154.042 90.85 154.042 90.85C154.042 90.85 160.834 93.4042 167.128 92.4972C173.422 91.5901 177.229 84.3337 177.229 84.3337C177.229 84.3337 173.003 82.1078 165.636 82.5196V82.5251ZM168.654 88.7298C167.972 90.3158 165.675 91.0782 163.808 90.2546C161.946 89.431 162.17 86.9769 162.46 86.0699C162.46 86.0699 162.98 84.2168 165.982 84.5062C168.984 84.7956 169.336 87.1439 168.654 88.7298Z" fill="black"/>
<path d="M164.294 92.8316C158.978 92.8316 154.047 91.0008 153.986 90.9785L153.835 90.9229L153.908 90.7838C153.952 90.7059 158.251 82.7928 165.619 82.381C172.941 81.9692 177.246 84.1895 177.285 84.2118L177.408 84.2786L177.341 84.401C177.302 84.4733 173.428 91.7298 167.133 92.6368C166.189 92.7704 165.233 92.8316 164.283 92.8316H164.294ZM154.243 90.7782C155.283 91.1455 161.437 93.1822 167.105 92.3642C172.802 91.5461 176.491 85.3637 177.033 84.401C176.273 84.0449 172.187 82.2975 165.641 82.6648C158.972 83.0376 154.852 89.7209 154.243 90.7782ZM165.428 90.7337C164.853 90.7337 164.283 90.6168 163.757 90.3831C161.745 89.4927 162.063 86.8773 162.337 86.0315C162.337 86.0148 162.919 84.0727 166.004 84.3676C167.609 84.5234 168.363 85.2468 168.704 85.8256C169.191 86.6436 169.224 87.7732 168.788 88.786C168.475 89.5206 167.821 90.1104 166.96 90.4443C166.468 90.6335 165.948 90.7337 165.428 90.7337ZM165.367 84.6125C163.058 84.6125 162.617 86.0426 162.6 86.1094C162.348 86.8996 162.041 89.3202 163.869 90.1271C164.802 90.5389 165.892 90.5612 166.854 90.1828C167.648 89.8711 168.24 89.3369 168.525 88.6747C168.838 87.9458 168.984 86.8551 168.458 85.9703C168.011 85.219 167.15 84.7571 165.971 84.6459C165.758 84.6236 165.557 84.618 165.367 84.618V84.6125Z" fill="black"/>
<path d="M214.162 106.188C209.025 107.011 204.553 109.421 204.553 109.421C204.553 109.421 208.779 113.561 214.078 113.255C219.377 112.943 220.954 108.53 220.954 108.53C220.954 108.53 219.299 105.364 214.162 106.188ZM212.809 112.131C210.976 111.474 209.477 109.743 211.697 107.534C211.697 107.534 213.698 106.121 215.693 108.508C217.689 110.895 215.028 112.926 212.809 112.131Z" fill="black"/>
<path d="M213.519 113.41C208.482 113.41 204.497 109.56 204.457 109.521L204.323 109.387L204.491 109.298C204.536 109.276 209.041 106.866 214.139 106.048C219.31 105.213 221.06 108.435 221.076 108.463L221.104 108.519L221.082 108.575C221.065 108.619 219.416 113.082 214.083 113.394C213.893 113.405 213.703 113.41 213.513 113.41H213.519ZM204.798 109.454C205.575 110.155 209.432 113.383 214.072 113.115C218.885 112.837 220.59 109.059 220.802 108.541C220.556 108.141 218.796 105.586 214.189 106.321C209.701 107.044 205.67 109.009 204.798 109.454ZM213.826 112.442C213.468 112.442 213.105 112.381 212.764 112.258C211.551 111.824 210.701 111.029 210.5 110.127C210.366 109.532 210.45 108.58 211.601 107.434C211.64 107.4 213.748 105.959 215.805 108.413C216.638 109.409 216.772 110.467 216.174 111.324C215.671 112.036 214.765 112.442 213.826 112.442ZM213.139 107.25C212.362 107.25 211.819 107.617 211.78 107.645C210.942 108.48 210.601 109.298 210.768 110.066C210.947 110.873 211.73 111.591 212.853 111.997C213.994 112.403 215.319 112.047 215.939 111.162C216.459 110.422 216.33 109.482 215.587 108.591C214.704 107.534 213.826 107.245 213.139 107.245V107.25Z" fill="black"/>
<path d="M207.951 89.6141C203.893 88.4622 200.108 90.1093 200.108 90.1093C200.108 90.1093 201.573 93.7375 206.129 94.6446C210.685 95.5516 212.753 94.6446 212.753 94.6446C212.753 94.6446 212.009 90.7715 207.951 89.6141ZM205.475 93.8822C205.089 93.732 204.748 93.5483 204.457 93.3424C202.652 92.0403 204.206 89.1077 206.291 89.8923C206.665 90.0314 207.034 90.2763 207.353 90.6714C208.678 92.3018 207.437 94.6502 205.469 93.8878L205.475 93.8822Z" fill="black"/>
<path d="M209.885 95.1907C208.896 95.1907 207.638 95.0906 206.101 94.7845C201.523 93.8719 199.991 90.2047 199.98 90.1658L199.93 90.0378L200.053 89.9821C200.092 89.9654 203.932 88.3238 207.99 89.4813C212.082 90.6443 212.887 94.5786 212.893 94.6175L212.915 94.7288L212.814 94.7734C212.759 94.7956 211.831 95.1907 209.885 95.1907ZM200.299 90.1824C200.612 90.8224 202.216 93.7216 206.157 94.5063C210.047 95.2798 212.116 94.7177 212.591 94.5563C212.429 93.9164 211.451 90.7556 207.912 89.7484C204.368 88.7412 200.992 89.9153 200.293 90.1824H200.299ZM206.218 94.1668C205.961 94.1668 205.698 94.1167 205.43 94.011C205.039 93.8607 204.687 93.6715 204.385 93.4545C203.379 92.7311 203.379 91.5458 203.809 90.7556C204.245 89.9487 205.201 89.331 206.353 89.7595C206.789 89.9209 207.163 90.1991 207.476 90.5831C208.298 91.5903 208.141 92.7756 207.649 93.4434C207.303 93.9164 206.789 94.1668 206.218 94.1668ZM205.603 89.8931C204.905 89.8931 204.34 90.3383 204.049 90.8836C203.664 91.5959 203.669 92.5975 204.541 93.2264C204.826 93.4323 205.162 93.6103 205.525 93.7494C206.28 94.0444 206.984 93.8607 207.415 93.2764C207.845 92.6921 207.974 91.6515 207.247 90.7556C206.967 90.4106 206.632 90.1658 206.241 90.0211C206.017 89.9376 205.799 89.8986 205.598 89.8986L205.603 89.8931Z" fill="black"/>
<path d="M194.797 165.585C193.942 163.704 193.886 161.645 193.836 159.631C193.836 159.553 193.897 159.486 193.981 159.486C194.06 159.486 194.121 159.548 194.127 159.625C194.261 161.529 194.423 163.576 195.273 165.296C195.496 165.619 194.987 165.936 194.797 165.591V165.585Z" fill="black"/>
<path d="M193.11 164.706C192.126 162.647 191.606 160.321 191.992 158.051C192.009 157.951 192.104 157.878 192.205 157.895C192.311 157.912 192.378 158.012 192.361 158.112C192.054 160.277 192.618 162.514 193.602 164.439C193.786 164.762 193.283 165.04 193.11 164.701V164.706Z" fill="black"/>
<path d="M196.302 149.852C195.927 151.706 195.575 153.703 195.95 155.567C196 155.784 195.659 155.868 195.609 155.651C195.145 153.687 195.43 151.694 195.754 149.736C195.827 149.368 196.386 149.485 196.302 149.852Z" fill="black"/>
<path d="M203.792 167.849C203.541 167.849 203.317 167.682 203.25 167.432C203.205 167.259 202.166 163.119 203.843 159.396C203.915 159.229 204.072 159.107 204.256 159.074C204.564 159.018 211.831 157.76 214.983 160.632C218.225 163.592 216.884 166.664 216.822 166.792C216.694 167.07 216.364 167.198 216.085 167.07C215.805 166.942 215.676 166.614 215.805 166.336C215.85 166.235 216.856 163.848 214.229 161.45C211.808 159.24 206.106 159.919 204.748 160.12C203.407 163.414 204.329 167.109 204.34 167.148C204.418 167.443 204.234 167.749 203.938 167.827C203.893 167.838 203.843 167.844 203.798 167.844L203.792 167.849Z" fill="black"/>
<path d="M166.708 161.605C166.708 161.605 166.703 161.605 166.697 161.605C166.541 161.605 166.423 161.471 166.429 161.316C166.434 161.082 166.619 155.551 166.993 153.391C167.021 153.241 167.161 153.141 167.318 153.163C167.469 153.191 167.575 153.336 167.547 153.486C167.184 155.606 166.993 161.277 166.993 161.332C166.993 161.483 166.865 161.599 166.714 161.599L166.708 161.605Z" fill="black"/>
<path d="M165.591 159.908C165.44 159.908 165.317 159.791 165.311 159.641C165.25 158.083 166.027 154.115 166.06 153.948C166.088 153.798 166.239 153.698 166.39 153.731C166.541 153.759 166.641 153.909 166.608 154.059C166.602 154.098 165.809 158.127 165.87 159.619C165.876 159.774 165.758 159.902 165.602 159.908C165.602 159.908 165.596 159.908 165.591 159.908Z" fill="black"/>
<path d="M163.477 159.596C163.326 159.596 163.203 159.474 163.198 159.324C163.136 156.948 164.88 152.19 164.953 151.989C165.009 151.845 165.166 151.772 165.311 151.822C165.456 151.878 165.529 152.034 165.479 152.179C165.462 152.229 163.695 157.037 163.757 159.307C163.757 159.463 163.639 159.591 163.483 159.591H163.477V159.596Z" fill="black"/>
<path d="M165.457 142.714C164.227 144.706 163.047 146.909 162.785 149.258C162.768 149.475 162.421 149.453 162.438 149.23C162.651 146.765 163.763 144.528 164.982 142.413C165.177 142.096 165.663 142.402 165.451 142.714H165.457Z" fill="black"/>
<path d="M173.171 166.335C173.199 170.23 172.858 174.376 170.532 177.665C170.443 177.787 170.264 177.815 170.141 177.721C170.018 177.632 169.99 177.454 170.085 177.331C171.667 174.994 172.086 172.017 172.209 169.234C172.243 168.283 172.237 167.32 172.17 166.391C172.131 165.729 173.137 165.667 173.171 166.335Z" fill="black"/>
<path d="M171.683 168.445C171.426 169.564 169.615 178.813 168.558 178.373C168.419 178.301 168.374 178.128 168.447 177.989C169.917 175.001 170.537 171.595 171.331 168.373C171.376 168.151 171.728 168.217 171.678 168.445H171.683Z" fill="black"/>
<path d="M156.898 194.899C156.814 194.899 156.736 194.866 156.68 194.793C156.585 194.671 156.602 194.499 156.725 194.404C160.241 191.594 161.392 183.898 161.404 183.825C161.426 183.675 161.571 183.575 161.722 183.592C161.873 183.614 161.979 183.753 161.957 183.909C161.912 184.232 160.761 191.894 157.071 194.844C157.021 194.883 156.96 194.905 156.898 194.905V194.899Z" fill="black"/>
<path d="M154.97 194.222C154.903 194.222 154.83 194.199 154.78 194.144C154.668 194.038 154.662 193.865 154.769 193.749C156.641 191.762 159.475 185.963 159.503 185.902C159.57 185.763 159.738 185.707 159.878 185.774C160.018 185.841 160.074 186.008 160.006 186.147C159.889 186.386 157.111 192.085 155.177 194.132C155.121 194.188 155.048 194.222 154.975 194.222H154.97Z" fill="black"/>
<path d="M126.735 184.426C124.359 186.596 120.715 187.971 117.724 186.279C117.584 186.212 117.529 186.045 117.601 185.906C117.663 185.778 117.814 185.723 117.942 185.767C118.635 186.012 119.345 186.212 120.072 186.179C122.202 186.145 124.186 184.821 125.545 183.285C126.31 182.428 127.568 183.619 126.741 184.426H126.735Z" fill="black"/>
<path d="M129.099 161.939C125.723 163.253 121.972 162.579 118.607 161.594C118.462 161.55 118.372 161.394 118.417 161.249C118.456 161.11 118.601 161.027 118.741 161.055C119.574 161.233 120.412 161.394 121.251 161.489C123.621 161.761 126.31 161.761 128.462 160.715C129.295 160.259 129.96 161.522 129.094 161.939H129.099Z" fill="black"/>
<path d="M94.4417 157.126C95.3864 159.185 94.0616 161.372 92.5412 162.73C92.4294 162.836 92.2561 162.836 92.1443 162.73C92.0325 162.619 92.0381 162.446 92.1443 162.335L92.6026 161.806C93.5082 160.682 94.2684 159.024 93.5529 157.644C93.156 157.043 94.0952 156.486 94.4361 157.121L94.4417 157.126Z" fill="black"/>
<path d="M102.967 124.612C101.781 127.739 101.044 131.067 100.781 134.406C100.753 134.756 100.211 134.734 100.222 134.372C100.367 130.939 100.993 127.544 102.094 124.278C102.312 123.688 103.201 124.022 102.967 124.612Z" fill="black"/>
<path d="M100.484 125.284C99.2937 129.363 98.4496 133.72 99.0757 137.966C99.1316 138.317 98.595 138.417 98.5223 138.061C98.1086 135.885 98.1478 133.67 98.3658 131.478C98.6061 129.285 99.003 127.143 99.5956 125.012C99.6626 124.767 99.9198 124.622 100.166 124.694C100.423 124.767 100.563 125.034 100.479 125.284H100.484Z" fill="black"/>
<path d="M98.2652 127.839C97.3261 132.062 96.8342 136.648 98.159 140.849C98.2708 141.183 97.7621 141.367 97.6335 141.033C96.8118 138.901 96.5379 136.609 96.5044 134.338C96.4932 132.057 96.6832 129.82 97.1137 127.566C97.1752 127.243 97.4882 127.037 97.8124 127.099C98.1478 127.16 98.3658 127.505 98.2708 127.833L98.2652 127.839Z" fill="black"/>
<path d="M95.7389 130.465C95.901 130.499 96.1637 130.309 96.1917 130.159C96.1917 130.159 96.1693 130.248 96.1693 130.254C96.0967 130.593 96.0128 131.272 95.9681 131.623C95.5936 135.329 95.3867 139.208 96.46 142.813C96.5774 143.147 96.0575 143.342 95.9346 142.997C94.6992 139.313 94.7774 135.357 95.0346 131.528C95.0737 131.144 95.1352 130.443 95.2023 130.065C95.2135 130.009 95.2358 129.892 95.2526 129.836C95.2917 129.647 95.5489 129.458 95.7389 129.469C96.3929 129.48 96.3929 130.449 95.7389 130.46V130.465Z" fill="black"/>
<path d="M94.3747 132.218C94.1288 136.297 94.0505 140.576 95.258 144.516C95.3698 144.85 94.8611 145.033 94.7325 144.699C93.2847 140.671 93.1617 136.375 93.2064 132.145C93.2456 131.361 94.4362 131.428 94.3747 132.218Z" fill="black"/>
<path d="M92.3343 137.265C92.161 140.126 92.1386 143.303 93.6479 145.846C93.7374 145.974 93.7038 146.152 93.5697 146.236C93.4467 146.314 93.279 146.286 93.1951 146.169C92.72 145.523 92.3846 144.806 92.1163 144.071C91.3616 141.851 91.166 139.525 91.1939 137.187C91.2051 136.87 91.4679 136.625 91.7865 136.631C92.1219 136.637 92.379 136.937 92.3399 137.265H92.3343Z" fill="black"/>
<path d="M90.8751 142.892C90.9366 144.539 91.2049 146.381 92.2167 147.728C92.4347 147.995 92.0211 148.345 91.7919 148.084C90.8304 147.015 90.3944 145.663 90.0981 144.305C90.0702 143.765 89.5 142.53 90.3329 142.391C90.6236 142.363 90.8863 142.597 90.8807 142.892H90.8751Z" fill="black"/>
<path d="M90.082 147.287C90.2497 148.116 90.6018 149.056 91.2726 149.591C91.5577 149.785 91.2614 150.242 90.9652 150.058C90.2553 149.63 89.8137 148.951 89.4671 148.238C89.305 147.849 88.869 147.142 89.4783 146.92C89.7466 146.836 90.0317 147.009 90.0764 147.287H90.082Z" fill="black"/>
<path d="M167.005 73.2664C169.682 69.1597 170.884 64.1347 171.035 59.26C171.052 58.8037 171.762 58.8092 171.756 59.2767C171.75 63.0885 171.096 66.9059 169.66 70.4507C169.173 71.6415 168.642 72.7767 167.91 73.9064C167.742 74.1624 167.396 74.2403 167.139 74.0733C166.865 73.8953 166.803 73.5224 166.999 73.2609L167.005 73.2664Z" fill="black"/>
<path d="M196.436 79.348C197.727 76.3597 199.203 73.0432 198.817 69.7377C198.722 69.2424 199.477 69.0866 199.588 69.5819C200.131 73.1266 198.722 76.5768 197.448 79.8154C197.135 80.4943 196.112 80.0269 196.436 79.348Z" fill="black"/>
<path d="M218.376 88.7697C218.208 88.7697 218.04 88.6918 217.929 88.5471C217.744 88.3023 217.789 87.9517 218.035 87.7681C219.326 86.7942 222.747 83.9173 223.055 82.3647C223.116 82.0642 223.407 81.8639 223.709 81.9251C224.011 81.9863 224.206 82.2757 224.15 82.5762C223.709 84.8243 219.22 88.2689 218.711 88.6529C218.611 88.7308 218.493 88.7641 218.376 88.7641V88.7697Z" fill="black"/>
<path d="M224.011 89.0979C227.242 92.9208 229.69 97.4172 230.792 102.297C230.836 102.492 230.713 102.693 230.518 102.737C230.317 102.787 230.115 102.659 230.071 102.459C229.199 98.9308 227.533 95.6364 225.437 92.6704C224.732 91.6799 223.972 90.7061 223.167 89.8324C222.675 89.2871 223.514 88.5358 224.006 89.0923L224.011 89.0979Z" fill="black"/>
<path d="M210.69 57.6509C212.462 54.824 214.782 51.6911 218.342 51.1791C218.65 51.1457 218.924 51.3683 218.957 51.6744C218.991 51.9915 218.751 52.2698 218.432 52.2865C216.062 52.4534 214.15 54.2842 212.646 55.9982C212.121 56.6158 211.618 57.2725 211.176 57.9458C210.981 58.2463 210.511 57.9625 210.695 57.6509H210.69Z" fill="black"/>
<path d="M211.221 54.6228C212.943 51.8182 215.626 47.5333 219.265 47.2773C219.573 47.2773 219.83 47.5166 219.836 47.8227C219.836 48.1288 219.595 48.3847 219.288 48.3903C216.152 48.4793 213.351 52.4971 211.702 54.8955C211.523 55.196 211.048 54.9289 211.227 54.6228H211.221Z" fill="black"/>
<path d="M221.97 76.0373C224.284 73.9171 226.66 71.7246 228.645 69.3095C229.103 68.7419 229.975 69.432 229.517 70.0051C227.376 72.4592 224.961 74.5404 222.507 76.655C222.104 76.9944 221.573 76.3934 221.97 76.0429V76.0373Z" fill="black"/>
<path d="M225.459 76.0313C227.096 74.8627 228.896 73.5049 229.97 71.8299C230.361 71.2122 231.3 71.7742 230.926 72.4086C229.606 74.2338 227.723 75.4637 225.85 76.6489C225.447 76.8938 225.062 76.2928 225.459 76.0313Z" fill="black"/>
<path d="M235.28 86.0975C233.911 86.0975 232.821 85.7692 232.726 85.7413C232.429 85.6523 232.267 85.3407 232.357 85.0457C232.446 84.7508 232.759 84.5894 233.055 84.6785C233.095 84.6896 237.119 85.8805 238.964 83.393C239.702 82.4025 239.506 80.6941 238.439 78.8299C237.354 76.9268 235.862 75.7526 235.364 75.7916C234.313 75.8917 230.685 79.353 228.449 81.7792C228.243 82.0074 227.885 82.0185 227.661 81.8126C227.432 81.6067 227.421 81.2506 227.628 81.028C228.578 79.9985 233.402 74.8678 235.258 74.6898C236.549 74.5618 238.366 76.4482 239.411 78.2846C240.719 80.5773 240.881 82.6863 239.864 84.0608C238.645 85.7024 236.79 86.103 235.28 86.103V86.0975Z" fill="black"/>
<path d="M255.326 73.9675C253.649 73.9675 252.313 73.3943 252.285 73.3832C252.005 73.2608 251.877 72.9325 252 72.6487C252.123 72.3649 252.453 72.2369 252.738 72.3649C252.9 72.4316 256.695 74.0454 258.998 71.1573C259.58 70.4283 259.781 69.666 259.625 68.8201C259.25 66.8168 256.975 65.0862 256.572 64.8525L256.433 64.769C256.03 64.5186 255.566 64.2292 253.878 66.3661C251.832 68.9593 250.815 72.2703 250.809 72.3037C250.72 72.5986 250.407 72.7655 250.11 72.6765C249.814 72.5875 249.647 72.2814 249.736 71.9865C249.781 71.8418 250.815 68.4417 253 65.6816C254.929 63.2387 255.941 63.1552 257.025 63.8286L257.143 63.9009C257.746 64.2515 260.267 66.1991 260.726 68.6254C260.944 69.7884 260.659 70.8735 259.876 71.8529C258.546 73.5223 256.802 73.9731 255.326 73.9731V73.9675Z" fill="black"/>
<path d="M246.141 70.445C247.153 69.7884 248.03 68.8591 248.779 67.9075C248.874 67.7851 249.048 67.7628 249.165 67.8574C249.277 67.9409 249.305 68.0911 249.238 68.208C248.919 68.7756 248.561 69.3265 248.165 69.8552C247.734 70.4061 247.337 70.8846 246.784 71.3576C246.543 71.558 246.191 71.5246 245.996 71.2853C245.772 71.0238 245.845 70.612 246.147 70.445H246.141Z" fill="black"/>
<path d="M247.5 66.087C247.511 67.3892 246.863 68.6524 245.695 69.3035C245.052 69.6652 244.498 68.7192 245.13 68.3352C245.611 68.1516 246.075 67.9123 246.416 67.4727C246.745 67.0776 246.98 66.5489 247.075 66.0425C247.114 65.7921 247.506 65.8311 247.506 66.0815L247.5 66.087Z" fill="black"/>
<path d="M234 53.9109C235.654 51.7351 238.12 50.3829 240.736 49.7318C240.887 49.6928 241.038 49.7819 241.077 49.9321C241.116 50.0768 241.032 50.2215 240.898 50.266C239.696 50.6555 238.544 51.2009 237.516 51.9243C236.532 52.6199 235.559 53.5325 234.933 54.5286C234.52 55.163 233.569 54.5342 234.005 53.9109H234Z" fill="black"/>
<path d="M233.62 52.0132C235.571 50.3438 237.807 48.9693 240.367 48.474C240.563 48.4407 240.753 48.5686 240.787 48.7634C240.82 48.9526 240.697 49.1418 240.507 49.1808C239.35 49.459 238.249 49.971 237.226 50.6053C236.214 51.2397 235.225 52.0021 234.38 52.8257C233.844 53.3488 233.056 52.5196 233.615 52.0132H233.62Z" fill="black"/>
<path d="M232.569 48.0969C233.777 46.4664 235.56 45.2867 237.578 44.9973C237.779 44.9639 237.975 45.0975 238.008 45.3034C238.042 45.5093 237.902 45.6985 237.701 45.7318C235.979 46.088 234.436 47.2566 233.503 48.7145C233.089 49.3489 232.144 48.7145 232.575 48.0969H232.569Z" fill="black"/>
<path d="M171.84 129.185C167.116 130.588 165.216 134.383 165.216 134.383C165.216 134.383 166.127 136.025 172.214 135.529C178.302 135.034 179.213 129.18 179.213 129.18C179.213 129.18 176.563 127.778 171.84 129.18V129.185ZM174.708 133.448C173.813 134.667 172.371 135.201 171.001 134.249C169.632 133.298 169.246 131.4 170.873 130.655C172.5 129.909 173.774 130.259 174.16 130.749C174.16 130.749 175.608 132.224 174.713 133.442L174.708 133.448Z" fill="black"/>
<path d="M170.09 135.769C165.881 135.769 165.132 134.517 165.098 134.456L165.064 134.395L165.098 134.328C165.115 134.289 167.077 130.46 171.806 129.058C176.529 127.656 179.173 129.008 179.285 129.069L179.375 129.114L179.358 129.214C179.347 129.275 178.357 135.179 172.231 135.68C171.431 135.747 170.721 135.775 170.09 135.775V135.769ZM165.383 134.372C165.623 134.645 166.976 135.819 172.203 135.396C177.675 134.951 178.894 130.037 179.056 129.269C178.553 129.047 176.01 128.101 171.879 129.325C167.636 130.583 165.679 133.844 165.383 134.378V134.372ZM172.443 134.873C171.951 134.873 171.437 134.723 170.923 134.361C170.09 133.782 169.598 132.864 169.676 132.029C169.732 131.367 170.14 130.833 170.816 130.527C172.516 129.748 173.857 130.137 174.271 130.666C174.271 130.666 175.775 132.23 174.824 133.526C174.26 134.3 173.399 134.873 172.443 134.873ZM172.672 130.366C172.175 130.366 171.582 130.483 170.934 130.783C170.347 131.056 170.006 131.495 169.956 132.057C169.889 132.797 170.33 133.61 171.085 134.133C172.527 135.14 173.88 134.344 174.601 133.359C175.411 132.252 174.075 130.855 174.059 130.844C173.852 130.583 173.354 130.36 172.672 130.36V130.366Z" fill="black"/>
<path d="M147.199 98.6025C147.199 98.6025 147.188 98.6025 147.182 98.6025C146.942 98.5969 141.307 98.391 137.333 96.8218C137.048 96.7105 136.908 96.3822 137.02 96.0984C137.132 95.8146 137.456 95.6699 137.747 95.7867C141.537 97.2837 147.166 97.4895 147.222 97.4895C147.529 97.5007 147.769 97.7567 147.764 98.0627C147.753 98.3632 147.507 98.6025 147.205 98.6025H147.199Z" fill="black"/>
<path d="M127.165 87.8561C128.551 89.1861 130.368 90.0987 132.201 90.7053C132.375 90.7553 132.308 91.028 132.129 90.9946C130.625 90.7275 129.127 90.249 127.763 89.5311C127.288 89.1917 125.762 88.702 126.298 87.8951C126.505 87.6224 126.93 87.6057 127.159 87.8617L127.165 87.8561Z" fill="black"/>
<path d="M126.875 89.9759C128.926 91.0221 131.185 91.7733 133.482 92.0849C133.812 92.1239 133.773 92.6247 133.437 92.608C131.006 92.48 128.636 91.9013 126.383 90.9776C126.098 90.8551 125.964 90.5324 126.087 90.2486C126.215 89.9425 126.59 89.8201 126.875 89.9815V89.9759Z" fill="black"/>
<path d="M136.567 127.066C135.483 130.961 136.31 135.769 139.989 138.017C140.279 138.19 140.011 138.635 139.72 138.446C136.808 136.743 135.31 133.387 135.382 130.093C135.382 128.997 135.489 127.928 135.763 126.832C135.818 126.609 136.048 126.47 136.271 126.526C136.512 126.582 136.646 126.832 136.567 127.066Z" fill="black"/>
<path d="M112.698 202.845C110.116 214.359 93.5641 277.941 52.9197 285.048C19.6316 290.868 0.279264 230.947 1.18483 165.817C1.18483 165.817 -4.41069 107.727 17.7981 78.0557C41.7454 44.6005 88.5499 50.9443 108.746 47.6055" stroke="black" stroke-linecap="round" stroke-linejoin="round"/>
<path d="M164.036 181.082C164.036 181.082 165.881 199.006 149.648 200.024C135.17 200.931 119.87 201.059 114.806 201.076C113.794 201.076 112.922 201.811 112.704 202.846" stroke="black" stroke-linecap="round" stroke-linejoin="round"/>
<path d="M86.7555 150.705C86.7555 150.705 63.4343 211.166 49.7725 224.983" stroke="black" stroke-linecap="round" stroke-linejoin="round"/>
<path d="M70.0639 106.664C70.0639 106.664 66.5869 137.393 70.0639 171.688C71.7912 188.744 70.0527 189.762 70.0527 189.762" stroke="black" stroke-linecap="round" stroke-linejoin="round"/>
<path d="M81.4623 257.736C77.9798 264.358 74.2849 271.047 68.7899 276.245C68.2533 276.718 67.5043 275.922 68.0353 275.421C71.9259 271.542 74.6873 266.662 77.2699 261.849C78.1195 260.218 78.9524 258.554 79.7015 256.896C80.2661 255.727 82.0157 256.54 81.4623 257.731V257.736Z" fill="black"/>
<path d="M75.8887 261.498C73.0434 266.105 70.1143 270.624 66.8553 274.948C65.7541 276.383 64.6361 277.802 63.356 279.121C63.1436 279.344 62.7859 279.349 62.5679 279.132C62.3498 278.927 62.3387 278.587 62.5343 278.364C63.6802 277.046 64.6976 275.588 65.6926 274.119C68.6553 269.689 71.3105 265.02 73.8372 260.34C74.6198 258.944 76.6936 260.095 75.8943 261.498H75.8887Z" fill="black"/>
<path d="M65.6765 269.217C64.1392 272.411 62.507 275.533 60.5058 278.466C59.8238 279.44 59.1195 280.408 58.1859 281.254C57.9568 281.46 57.6046 281.449 57.3978 281.22C57.1909 280.998 57.2021 280.647 57.4257 280.436C58.1971 279.679 58.8511 278.733 59.466 277.776C61.2995 274.854 62.8088 271.694 64.1839 268.538C64.6367 267.542 66.1348 268.21 65.6821 269.212L65.6765 269.217Z" fill="black"/>
<path d="M60.7905 271.208C58.6216 275.259 56.4583 279.422 53.0485 282.599C52.5062 283.056 51.7851 282.265 52.2994 281.776C53.0764 281.047 53.7416 280.156 54.3733 279.249C56.2459 276.495 57.7664 273.467 59.1303 270.435C59.6446 269.316 61.3327 270.095 60.7961 271.214L60.7905 271.208Z" fill="black"/>
<path d="M56.3913 271.16C54.7199 274.281 53.0094 277.37 51.1424 280.38C50.5051 281.382 49.8735 282.378 49.0853 283.341C48.8896 283.58 48.5375 283.613 48.2971 283.419C48.0567 283.224 48.0232 282.868 48.2244 282.629C50.9076 278.867 52.9367 274.582 55.0665 270.481C55.5193 269.607 56.8385 270.269 56.3913 271.154V271.16Z" fill="black"/>
<path d="M50.4886 274.471C49.1415 277.108 47.867 279.78 46.2738 282.278C46.0279 282.651 45.5248 283.319 45.0496 282.846C44.703 282.462 45.1055 281.994 45.3179 281.655C46.7434 279.14 47.8725 276.446 49.0632 273.809C49.5048 272.851 50.947 273.514 50.4942 274.471H50.4886Z" fill="black"/>
<path d="M44.6968 274.286L43.8751 277.875L42.9472 281.927C42.8801 282.227 42.5782 282.416 42.2764 282.344C41.9857 282.277 41.7957 281.993 41.8516 281.704L43.249 273.986C43.4447 273.017 44.9037 273.307 44.7024 274.281L44.6968 274.286Z" fill="black"/>
<path d="M86.5155 255.884C84.6597 259.479 82.7088 262.973 80.0591 266.073C79.8579 266.307 79.5057 266.329 79.271 266.129C79.0418 265.928 79.0138 265.578 79.2151 265.35C81.6523 262.328 83.5081 258.761 85.1795 255.261C85.5988 254.365 86.9515 254.994 86.5211 255.889L86.5155 255.884Z" fill="black"/>
<path d="M40.9683 274.209C40.7168 276.357 40.4596 278.544 40.3534 280.697C40.3143 281.404 39.269 281.393 39.2355 280.692C39.1796 278.466 39.2746 276.29 39.364 274.075C39.3864 273.63 39.7609 273.291 40.2081 273.307C40.6777 273.324 41.0298 273.747 40.9739 274.209H40.9683Z" fill="black"/>
<path d="M37.7655 272.996C37.5587 275.077 37.4357 277.308 37.8606 279.351C38.0059 280.046 36.9774 280.302 36.7761 279.618C36.1836 277.375 36.1892 275.144 36.273 272.862C36.2954 272.45 36.6476 272.133 37.0668 272.155C37.4972 272.178 37.827 272.567 37.7711 272.996H37.7655Z" fill="black"/>
<path d="M34.5735 272.416C34.4282 274.236 34.4282 276.351 35.2275 277.998C35.5741 278.632 34.6518 279.172 34.2661 278.56C33.394 277.091 33.1704 275.516 33.0419 273.897C33.0698 273.123 32.617 271.587 33.8133 271.537C34.2717 271.548 34.6294 271.96 34.5735 272.416Z" fill="black"/>
<path d="M30.2358 270.519C30.5656 271.554 30.9401 272.606 31.337 273.629C31.7395 274.653 32.1755 275.666 32.6953 276.607C32.8519 276.879 32.7512 277.224 32.4773 277.369C32.2258 277.508 31.9072 277.425 31.7451 277.197C30.4482 275.271 29.4923 273.234 28.5588 271.125C28.1004 269.985 29.8389 269.345 30.2302 270.513L30.2358 270.519Z" fill="black"/>
</g>
<defs>
<clipPath id="clip0_7009_3099">
<rect width="383" height="286" fill="white"/>
</clipPath>
</defs>
</svg>
